<?xml version="1.0" encoding="UTF-8"?>
<svg id="Camada_1" xmlns="http://www.w3.org/2000/svg" version="1.1" viewBox="0 0 928.9 231.9">
  <!-- Generator: Adobe Illustrator 30.6.0, SVG Export Plug-In . SVG Version: 2.1.4 Build 109)  -->
  <defs>
    <style>
      .st0 {
        fill: #375da5;
      }

      .st1 {
        fill: #fff;
      }
    </style>
  </defs>
  <g>
    <path class="st1" d="M336.5,203.5v14.9h-6.6v-14.5c0-4.7-2.3-7.4-6.5-7.4s-4.3,1-6.2,3.7c.2,1,.3,2.1.3,3.3v14.9h-6.6v-14.5c0-4.7-2.4-7.4-6.5-7.4s-4.1,1.1-5.9,3.6v18.3h-6.6v-27.1s6.6,0,6.6,0v1.9c1.8-1.7,3.8-2.7,7.3-2.7s6.7,1.5,8.8,4.1c2.9-2.7,5.7-4.1,10.2-4.1,6.6,0,11.8,5.2,11.8,13Z"/>
    <path class="st1" d="M398.3,218.4h-6.6v-1.9c-2.2,1.6-5,2.5-8.3,2.5-7.6,0-13.6-6.3-13.6-14.1s6.1-14.2,13.6-14.2,6.1.9,8.3,2.5v-1.9h6.6v27.1ZM391.7,209.5v-9.2c-1.9-2.8-4.5-3.8-7.3-3.8-4.6,0-8,3.9-8,8.5s3.4,8.4,8,8.4,5.4-1,7.3-3.8Z"/>
    <path class="st1" d="M440.2,194.8c2.5-2.5,5.7-3.9,9.8-3.9v6.2c-4.3.2-7.5,1.7-9.8,4.5v16.8h-6.6v-27.1s6.6,0,6.6,0v3.4Z"/>
    <path class="st1" d="M489.7,212.4v6.1h-6.6v-40.6s6.6,0,6.6,0v25.9s11.9-12.3,11.9-12.3h8.4l-10.9,11.2,12.4,15.8h-8.6l-8.4-11.1-4.9,5Z"/>
    <path class="st1" d="M567.4,207.5h-20.8c.8,3.4,3.3,6,7.9,6s4.5-.9,5.5-2.5h7c-1.5,5-6.5,8.1-12.7,8.1s-14.4-6.1-14.4-14.1,5.7-14.2,14.4-14.2,13.2,5.6,13.2,13.7c0,1,0,2-.2,3ZM546.6,202.6h14.3c-.5-3.8-2.9-6.2-6.9-6.2s-6.7,2.7-7.4,6.2Z"/>
    <path class="st1" d="M621.3,218.1c-3,.9-4.4,1.1-6.8,1.1-6.5,0-10.5-4.3-10.5-11.3v-11.1h-6.2v-5.6s6.2,0,6.2,0v-9.9h6.6v9.9h10v5.6s-10,0-10,0v11.1c0,3.6,1.9,5.1,5.2,5.1s3.1-.3,4.6-.7l.9,5.7Z"/>
    <path class="st1" d="M654,181.6c0-2.3,1.8-4.1,4.1-4.1s4.1,1.7,4.1,4.1-1.8,3.9-4.1,3.9-4.1-1.7-4.1-3.9ZM661.5,218.4h-6.6v-27.1s6.6,0,6.6,0v27.1Z"/>
    <path class="st1" d="M724,203.5v14.9h-6.6v-14.5c0-4.7-2.5-7.4-6.6-7.4s-4.9,1.4-7,3.9v18h-6.6v-27.1s6.6,0,6.6,0v2.2c2.3-1.9,5.1-3.1,8.4-3.1,7.1,0,11.8,5.2,11.8,13Z"/>
    <path class="st1" d="M785.3,218.4c0,8.4-5.7,13.5-13.7,13.5s-13.3-4.6-14-11.2h6.7c.5,3.1,3.1,5.2,7.3,5.2s7.2-2.7,7.2-7.5v-3.4c-2.2,1.6-5.1,2.5-8.4,2.5-7.6,0-13.6-6.3-13.6-13.4s6-13.8,13.6-13.8,6.1.9,8.4,2.5v-1.5h6.6v27.1ZM778.7,208v-8.1c-1.9-2.8-4.6-3.9-7.4-3.9-4.7,0-8,3.5-8,8.2s3.3,7.7,8,7.7,5.5-1,7.4-3.8Z"/>
  </g>
  <path class="st1" d="M463.9,92.9v59.4s-34.8,0-34.8,0v-53.9c0-14.8-7.3-21.9-18.7-21.9-5.4,0-10.7,2.4-15.9,8.6.2,2.6.4,5.2.4,7.7v59.4s-34.8,0-34.8,0v-53.9c0-14.8-7.3-21.9-18.7-21.9-5.2,0-10.5,2.6-15.5,9v66.7s-35,0-35,0V48.3s35,0,35,0v6c6.9-6,14.2-9.2,25.5-9.2,13.1,0,24.2,4.9,32.2,14.2,10.9-9.9,21.5-14.2,36.9-14.2,24.9,0,43.1,18.2,43.1,47.9"/>
  <rect class="st1" x="487.7" y="48.3" width="34.8" height="104.1"/>
  <path class="st1" d="M654.4,92.9v59.4s-34.8,0-34.8,0v-53.9c0-14.8-7.5-21.9-19.1-21.9-6.2,0-12.9,3.4-18.9,10.3v65.4s-35,0-35,0V48.3s35,0,35,0v6.9c8.4-6.4,17.4-10.1,28.5-10.1,26.2,0,44.2,18.2,44.2,47.9"/>
  <path class="st1" d="M751.2,116.7v-32.4c-6.7-7.3-13.9-9.7-21.5-9.7-14.2,0-24.7,11.6-24.7,25.8,0,14.6,10.5,26,24.7,26,7.5,0,14.8-2.1,21.5-9.7M786,152.4h-34.8s0-5.4,0-5.4c-7.7,4.9-17,7.9-28.5,7.9-28.1,0-51.7-23.4-51.7-54.5,0-30.9,23.6-54.1,51.7-54.1,11.6,0,20.8,3,28.5,7.9V0s34.8,0,34.8,0v152.4Z"/>
  <polygon class="st1" points="857.9 202.6 821.2 202.6 848 153.6 798.6 48.3 835.3 48.3 865.4 112.4 892.4 48.3 928.9 48.3 857.9 202.6"/>
  <rect class="st1" x="487.7" y="6.1" width="34.8" height="26.8"/>
  <circle class="st1" cx="107.2" cy="117.9" r="107.2"/>
  <path class="st0" d="M69.1,114.7c-13.8,0-24.9,11.1-24.9,24.9v20.1h29.8v-45h-4.9Z"/>
  <path class="st0" d="M112.1,91.9c-13.8,0-24.9,11.1-24.9,24.9v43h29.8v-67.9h-4.9Z"/>
  <path class="st0" d="M155.1,69.7c-13.8,0-24.9,11.1-24.9,24.9v65.2h29.8v-90.1h-4.9Z"/>
</svg>